# xmcd
#
# Track frame offsets: 
#        150
#        16178
#        32536
#        51224
#        69938
#        88722
#        106091
#        120376
#        137325
#        155130
#        173583
#        191807
#        209315
#        229501
#
# Disc length: 3310 seconds
#
# Revision: 0
# Processed by: cddbd v1.5.2PL0 Copyright (c) Steve Scherf et al.
# Submitted via: ExactAudioCopyFreeDBPlugin 1.0
#
DISCID=a90cec0e
DTITLE=Neonschwarz - Clash
DYEAR=2018
DGENRE=No, thanks.
TTITLE0=N.E.O.N.
TTITLE1=Maradona
TTITLE2=Fieber
TTITLE3=2018
TTITLE4=Ananasland
TTITLE5=Gleis 13
TTITLE6=67
TTITLE7=Klatsche
TTITLE8=Neonröhren
TTITLE9=Der Opi Aus Dem 2. Stock
TTITLE10=5 Nach 12
TTITLE11=Verrückt
TTITLE12=In Flammen
TTITLE13=St.Pauli
EXTD=
EXTT0=
EXTT1=
EXTT2=
EXTT3=
EXTT4=
EXTT5=
EXTT6=
EXTT7=
EXTT8=
EXTT9=
EXTT10=
EXTT11=
EXTT12=
EXTT13=
PLAYORDER=
